PathFileType	4	(X/Y/Z)	C:/Users/beibeiliu/ov580/test_trc/User1\sequence.8_training_dense_left.trc
DataRate	CameraRate	NumFrames	NumMarkers	Units	OrigDataRate	OrigDataStartFrame	OrigNumFrames
120	120	20	19	mm	120	1	289
Frame#	Time	ThumbCMC			ThumbMCP			ThumbIP			ThumbTip			IndexMCP			IndexPIP			IndexTip			MiddleMCP			MiddlePIP			MiddleTip			RingMCP			RingPIP			RingTip			PinkyMCP			PinkyPIP			PinkyTip			BackHand1			BackHand2			BackHand3	
		X0	Y0	Z0	X1	Y1	Z1	X2	Y2	Z2	X3	Y3	Z3	X4	Y4	Z4	X5	Y5	Z5	X6	Y6	Z6	X7	Y7	Z7	X8	Y8	Z8	X9	Y9	Z9	X10	Y10	Z10	X11	Y11	Z11	X12	Y12	Z12	X13	Y13	Z13	X14	Y14	Z14	X15	Y15	Z15	X16	Y16	Z16	X17	Y17	Z17	X18	Y18	Z18	
0	0	-156.338	108.894	28.0602	-134.117	94.534	20.3079	-108.973	90.3016	9.59332	-87.4128	85.7445	3.36889	-164.482	98.4466	-59.165	-158.039	94.1999	-82.3463	-154.381	94.2568	-112.36	-190.948	101.847	-71.298	-190.142	98.6786	-98.2228	-191.784	95.8798	-127.627	-216.382	97.4846	-67.7653	-219.274	95.5722	-89.7869	-223.451	91.0494	-114.59	-248.431	88.1055	-45.0553	-256.425	84.1796	-58.289	-265.503	86.6311	-82.4151	-217.649	116.656	-16.3975	-222.695	129.154	20.0187	-186.082	123.964	2.64062	
1	0.00833333	-158.085	107.21	25.9754	-133.312	95.09	19.3409	-113.278	87.7957	6.40696	-88.5885	84.2634	2.81356	-165.421	98.0799	-60.5826	-159.665	94.7866	-86.5552	-156.885	93.646	-113.463	-190.901	101.414	-73.5271	-190.099	98.5697	-95.5519	-192.753	95.684	-127.575	-221.777	97.9797	-65.5099	-219.482	94.6609	-89.952	-224.39	91.6475	-119.269	-245.449	88.358	-41.823	-260.107	83.2479	-62.0159	-268.443	87.3596	-79.2882	-221.071	115.828	-12.4781	-222.082	128.978	17.528	-185.842	122.152	1.49131	
2	0.0166667	-158.973	107.222	27.7664	-136.295	94.8473	20.8118	-108.826	88.32	5.68861	-92.8479	83.7717	4.06351	-160.216	97.4409	-63.1458	-160.566	94.4848	-84.626	-154.125	93.1766	-109.073	-193.818	102.54	-70.4642	-190.792	98.4988	-96.8467	-190.211	95.9608	-125.741	-216.942	98.2857	-63.6757	-220.556	94.1053	-94.3136	-225.759	91.3	-118.178	-247.701	89.1326	-42.7725	-259.48	83.2669	-59.8433	-267.482	84.8563	-80.3248	-221.866	116.627	-13.281	-221.753	127.427	17.6644	-188.001	122.657	4.05214	
3	0.025	-154.574	106.922	23.8531	-135.091	93.8499	17.8546	-111.057	87.7204	6.41228	-92.7904	83.7945	5.98579	-163.051	97.403	-63.079	-155.929	95.0611	-87.355	-159.854	92.7119	-109.278	-191.394	102.443	-69.0467	-190.906	98.5739	-99.1327	-192.885	95.7706	-126.851	-216.586	98.1646	-66.4382	-221.343	94.54	-93.0749	-223.185	91.1941	-113.569	-242.777	89.2178	-43.0544	-255.257	85.0974	-61.6892	-267.527	87.8093	-80.2543	-219.593	115.015	-15.8115	-225.06	127.735	15.9988	-185.834	122.361	1.13814	
4	0.0333333	-159.868	106.747	26.3946	-133.241	94.0501	16.8918	-109.684	88.9892	9.0754	-89.7759	84.8832	6.30624	-160.85	98.1011	-59.6166	-158.339	94.98	-82.6289	-155.187	93.6637	-107.777	-188.967	102.69	-74.8244	-188.168	97.5616	-101.385	-190.458	95.6939	-125.345	-221.416	97.3309	-65.4349	-220.246	94.7802	-94.8205	-225.623	90.3467	-118.375	-248.85	87.9392	-43.4447	-253.812	84.3584	-61.055	-268.024	87.4256	-80.7152	-220.514	116.585	-15.7957	-219.445	127.816	14.8837	-186.855	121.307	1.01171	
5	0.0416667	-158.403	105.69	22.5127	-134.75	94.0269	16.9999	-109.928	88.0725	4.54625	-88.8517	84.965	5.47236	-160.355	97.3525	-58.4539	-160.547	93.9107	-87.1545	-155.929	92.992	-107.91	-193.321	101.379	-73.9651	-189.311	97.984	-98.7758	-193.851	94.9168	-126.874	-222	96.9611	-65.6768	-223.378	94.0282	-94.3455	-226.907	90.3557	-115.15	-246.86	88.7558	-44.2902	-253.569	84.1814	-59.2334	-268.268	84.6716	-79.807	-217.56	116.56	-12.1646	-222.115	127.122	16.6842	-183.788	121.1	2.60215	
6	0.05	-156.106	106.174	23.1923	-132.138	94.0202	17.4378	-113.007	86.0866	8.0491	-91.6946	83.2847	4.64302	-163.744	96.28	-64.2317	-157.948	92.7302	-82.7535	-158.495	92.3952	-108.765	-194.224	101.013	-74.6172	-189.298	97.543	-96.6071	-191.718	95.7854	-128.626	-217.166	97.0331	-63.8177	-221.905	93.6518	-91.5833	-223.293	91.3691	-119.155	-249.089	87.6042	-43.5288	-258.661	82.5521	-62.9292	-269.11	84.6903	-81.3294	-216.681	114.169	-11.5111	-223.755	127.313	17.947	-187.096	122.748	2.9748	
7	0.0583333	-157.81	107.659	27.6025	-134.447	93.969	20.1393	-108.432	88.1491	6.73193	-89.9464	84.8397	7.38678	-162.941	97.0068	-62.8239	-156.789	92.6387	-87.3493	-159.504	92.6	-108.927	-192.52	100.751	-74.2125	-190.438	97.0114	-97.5094	-188.286	94.8261	-131.022	-217.199	97.1421	-65.2039	-224.445	93.3494	-91.9593	-225.808	90.0308	-115.426	-249.952	87.8737	-46.1436	-256.157	83.2183	-60.3182	-269.888	83.9377	-84.1971	-222.298	114.852	-12.1312	-223.737	126.861	16.0878	-184.284	123.31	2.23031	
8	0.0666667	-157.179	105.174	25.5078	-133.815	91.9494	17.6206	-112.531	85.6222	6.47078	-88.6862	83.0039	3.23284	-162.785	96.6845	-60.0214	-157.651	92.766	-87.8184	-153.312	91.738	-112.384	-191.607	101.251	-70.3896	-192.4	96.9582	-100.739	-190.581	94.2187	-128.06	-218.942	96.8817	-66.3887	-223.388	93.5803	-91.0794	-222.359	89.8938	-117.791	-248.048	88.3438	-41.4919	-255.132	83.3784	-58.8823	-269.041	85.1918	-81.1017	-219.058	113.593	-12.9866	-224.189	126.377	19.5916	-185.95	120.658	3.99802	
9	0.075	-159.302	104.893	26.8751	-130.673	92.7023	20.2001	-109.616	87.586	10.6858	-92.2235	80.8658	5.22413	-161.199	95.5622	-60.7433	-160.567	92.3764	-83.1999	-157.348	91.9045	-109.704	-189.556	101.1	-72.31	-187.758	97.413	-97.9639	-189.382	93.7664	-126.297	-215.257	96.8677	-67.382	-223.564	94.1114	-89.1088	-223.453	89.2075	-115.571	-243.163	88.4216	-42.3736	-256.998	82.7728	-60.3807	-266.499	84.8502	-80.6951	-221.324	114.345	-12.4273	-222.812	126.292	15.8075	-184.508	120.925	5.06117	
10	0.0833333	-156.55	105.49	25.206	-132.652	92.8296	19.6218	-109.6	86.1793	8.09884	-88.5913	82.9735	5.42855	-163.489	94.684	-62.1308	-157.735	91.4061	-83.9032	-157.728	91.2232	-112.175	-190.586	100.712	-73.9213	-188.446	96.5678	-96.9695	-192.763	93.6501	-126.38	-221.505	96.0711	-64.8944	-222.888	93.7042	-89.5417	-222.817	89.9743	-117.037	-243.352	87.8816	-42.6894	-256.04	83.4675	-60.2798	-266.104	84.6681	-80.1492	-221.002	114.198	-12.0974	-221.947	124.81	15.1473	-186.226	121.448	3.36642	
11	0.0916667	-160.762	104.792	27.3302	-131.384	94.2363	22.2351	-109.273	87.7722	9.91715	-92.2922	81.6505	4.33905	-161.937	95.2917	-62.2089	-157.405	92.034	-86.2819	-158.323	91.2418	-108.483	-190.773	100.908	-70.9911	-190.528	97.4292	-99.0872	-190.665	94.8291	-129.736	-219.97	96.5629	-63.1545	-219.548	93.3836	-89.2649	-224.651	90.1229	-113.462	-244.489	87.7308	-48.0319	-253.441	83.4566	-59.3839	-269.123	85.618	-80.6521	-220.618	115.663	-14.453	-224.554	126.89	16.4479	-183.439	119.261	2.47428	
12	0.1	-160.035	105.76	22.5387	-135.764	92.043	18.2212	-109.13	87.7161	9.99541	-89.8911	83.9866	6.12032	-160.979	96.4829	-63.3734	-155.55	93.5797	-85.2142	-156.831	92.5371	-107.552	-188.948	101.437	-73.21	-190.004	97.8766	-100.821	-191.963	95.8924	-126.291	-221.576	97.8134	-65.2437	-218.651	94.3367	-93.0381	-223.762	90.5931	-115.846	-246.497	88.6555	-42.8949	-255.102	84.0542	-58.5585	-268.037	86.6923	-83.1518	-216.498	113.802	-15.3698	-222.254	127.157	18.6815	-186.014	120.413	4.19165	
13	0.108333	-159.697	105.716	27.1354	-132.054	94.0837	19.1715	-108.934	88.8338	7.60589	-89.3669	83.3944	4.16141	-165.93	97.7045	-60.5644	-159.313	95.2176	-82.9298	-156.881	94.3734	-111.503	-191.13	103.175	-74.8191	-188.722	99.0965	-100.247	-189.898	96.4435	-125.959	-219.43	98.286	-67.2869	-221.279	95.0892	-89.3807	-223.441	90.9479	-114.527	-245.684	89.1773	-48.3285	-258.552	83.3467	-63.3112	-266.777	86.276	-83.8082	-218.087	113.958	-15.1222	-222.293	128.392	16.1019	-186.468	123.569	5.68639	
14	0.116667	-158.57	107.787	26.5231	-134.923	95.6706	21.4195	-110.594	89.5134	9.59647	-92.5456	84.0844	3.73094	-165.876	98.6111	-63.5231	-161.012	95.8496	-85.1015	-157.674	94.2851	-111.23	-190.65	103.611	-71.3508	-188.386	99.846	-98.64	-191.628	97.5611	-131.381	-219.568	98.5847	-66.474	-222.216	95.5081	-91.778	-223.164	90.9099	-114.024	-250.061	89.2673	-46.4593	-257.565	85.6143	-59.2467	-270.411	87.3952	-84.6353	-222.915	116.504	-12.8863	-222.514	125.935	16.3395	-188.27	122.84	3.07742	
15	0.125	-159.681	107.39	25.9418	-135.072	95.1188	17.9009	-109.194	90.3413	5.10807	-93.0392	85.0853	6.15603	-164.365	99.9367	-61.9958	-157.608	96.9582	-85.3511	-159.291	96.9751	-114.542	-194.415	105.354	-71.3165	-188.044	101.454	-101.879	-190.576	99.4328	-127.93	-221.47	100.463	-65.328	-221.283	96.4972	-90.892	-225.6	92.3146	-115.837	-250.726	90.4365	-45.6086	-256.847	86.1455	-62.0574	-267.614	88.3965	-85.4142	-220.888	115.524	-15.514	-223.862	127.22	16.7493	-186.517	124.473	0.430046	
16	0.133333	-160.663	108.86	27.1287	-133.451	96.2899	16.1176	-113.022	90.9328	6.28166	-91.23	87.8103	1.88195	-166.32	102.348	-60.8115	-161.682	98.4888	-89.1473	-159.776	98.6036	-112.298	-196.581	106.969	-70.6959	-193.32	104.219	-100.726	-193.031	101.762	-128.224	-218.805	101.82	-67.6055	-224.151	99.6272	-94.2678	-226.17	95.8189	-120.85	-250.144	91.6644	-48.1078	-257.87	88.3036	-62.2409	-267.917	89.9684	-83.9513	-222.796	118.619	-11.7724	-223.72	129.363	14.834	-189.339	125.435	-0.0943482	
17	0.141667	-159.609	108.542	25.4332	-138.188	95.7308	18.9684	-114.448	91.1887	7.28372	-92.4888	88.5788	4.00517	-163.59	104.759	-60.3029	-161.922	101.426	-89.7941	-159.826	100.325	-112.768	-194.728	109.641	-75.774	-190.795	106.432	-100.393	-193.667	103.944	-133.563	-222.148	104.549	-68.962	-224.242	102.306	-92.7748	-221.423	96.4059	-120.302	-247.635	94.3991	-47.5734	-260.328	89.7501	-65.4436	-267.553	91.8202	-83.5776	-221.049	119.51	-14.8903	-226.906	128.431	14.4538	-191.745	125.681	1.87426	
18	0.15	-159.91	109.388	24.2766	-140.2	97.1712	17.7815	-111.683	93.9183	4.28396	-95.4284	89.7504	-0.590279	-165.795	107.81	-60.5211	-160.7	106.284	-87.9885	-162.299	104.19	-114.537	-194.419	113.589	-72.8835	-194.08	109.966	-104.82	-194.549	106.473	-128.97	-222.02	107.096	-67.4402	-225.825	104.093	-96.0725	-224.51	99.119	-123.358	-248.818	94.886	-48.1084	-258.2	91.0291	-68.3634	-265.992	93.4981	-86.5856	-221.471	119.798	-12.7075	-228.791	129.337	17.8749	-193.873	124.531	3.79522	
19	0.158333	-164.255	109.43	24.9865	-137.417	100.645	18.7126	-115.223	97.4792	5.20942	-94.4924	94.7756	1.68614	-168.063	114.027	-65.6956	-163.103	111.257	-86.5256	-162.459	106.979	-115.347	-195.755	117.816	-76.5204	-189.885	113.932	-102.457	-193.49	108.542	-130.703	-224.389	109.704	-71.9968	-223.282	107.056	-94.6965	-223.19	101.293	-123.644	-250.301	96.7729	-47.706	-259.493	92.4907	-65.9674	-269.007	92.0687	-88.3692	-223.863	123.076	-15.2701	-229.409	125.7	20.7034	-190.42	127.22	6.39119	
